<svg width="16" height="18" viewBox="0 0 16 18" fill="none" xmlns="http://www.w3.org/2000/svg">
<path fill-rule="evenodd" clip-rule="evenodd" d="M0.0416641 3.16667C0.0416641 1.90101 1.06768 0.875 2.33333 0.875H10.6667C11.9323 0.875 12.9583 1.90101 12.9583 3.16667V6.5C12.9583 6.84518 12.6785 7.125 12.3333 7.125C11.9882 7.125 11.7083 6.84518 11.7083 6.5V3.16667C11.7083 2.59137 11.242 2.125 10.6667 2.125H2.33333C1.75803 2.125 1.29166 2.59137 1.29166 3.16667V14.8333C1.29166 15.4086 1.75803 15.875 2.33333 15.875H8.25001C8.59519 15.875 8.87501 16.1548 8.87501 16.5C8.87501 16.8452 8.59519 17.125 8.25001 17.125H2.33333C1.06768 17.125 0.0416641 16.099 0.0416641 14.8333V3.16667ZM3.375 4.83333C3.375 4.48816 3.65482 4.20833 4 4.20833H9C9.34518 4.20833 9.625 4.48816 9.625 4.83333C9.625 5.17851 9.34518 5.45833 9 5.45833H4C3.65482 5.45833 3.375 5.17851 3.375 4.83333ZM3.375 8.16667C3.375 7.82149 3.65482 7.54167 4 7.54167H4.00833C4.35351 7.54167 4.63333 7.82149 4.63333 8.16667C4.63333 8.51184 4.35351 8.79167 4.00833 8.79167H4C3.65482 8.79167 3.375 8.51184 3.375 8.16667ZM5.875 8.16667C5.875 7.82149 6.15482 7.54167 6.5 7.54167H6.50833C6.85351 7.54167 7.13333 7.82149 7.13333 8.16667C7.13333 8.51184 6.85351 8.79167 6.50833 8.79167H6.5C6.15482 8.79167 5.875 8.51184 5.875 8.16667ZM8.375 8.16667C8.375 7.82149 8.65482 7.54167 9 7.54167H9.00833C9.35351 7.54167 9.63333 7.82149 9.63333 8.16667C9.63333 8.51184 9.35351 8.79167 9.00833 8.79167H9C8.65482 8.79167 8.375 8.51184 8.375 8.16667ZM3.375 10.6667C3.375 10.3215 3.65482 10.0417 4 10.0417H4.00833C4.35351 10.0417 4.63333 10.3215 4.63333 10.6667C4.63333 11.0118 4.35351 11.2917 4.00833 11.2917H4C3.65482 11.2917 3.375 11.0118 3.375 10.6667ZM5.875 10.6667C5.875 10.3215 6.15482 10.0417 6.5 10.0417H6.50833C6.85351 10.0417 7.13333 10.3215 7.13333 10.6667C7.13333 11.0118 6.85351 11.2917 6.50833 11.2917H6.5C6.15482 11.2917 5.875 11.0118 5.875 10.6667ZM3.375 13.1667C3.375 12.8215 3.65482 12.5417 4 12.5417H4.00833C4.35351 12.5417 4.63333 12.8215 4.63333 13.1667C4.63333 13.5118 4.35351 13.7917 4.00833 13.7917H4C3.65482 13.7917 3.375 13.5118 3.375 13.1667ZM5.875 13.1667C5.875 12.8215 6.15482 12.5417 6.5 12.5417H6.50833C6.85351 12.5417 7.13333 12.8215 7.13333 13.1667C7.13333 13.5118 6.85351 13.7917 6.50833 13.7917H6.5C6.15482 13.7917 5.875 13.5118 5.875 13.1667Z" fill="white"/>
<path fill-rule="evenodd" clip-rule="evenodd" d="M12.25 8.375C12.5952 8.375 12.875 8.65482 12.875 9V9.17434C13.5984 9.29012 14.2514 9.60653 14.6713 10.0903C14.8593 10.307 14.8757 10.624 14.7109 10.8589C14.5462 11.0938 14.2426 11.1864 13.9748 11.0833L12.875 10.6601V12.1741C13.3654 12.2524 13.8175 12.4224 14.1877 12.6692C14.7067 13.0151 15.125 13.5617 15.125 14.25C15.125 14.9383 14.7067 15.4849 14.1877 15.8308C13.8175 16.0776 13.3654 16.2476 12.875 16.3259V16.5C12.875 16.8452 12.5952 17.125 12.25 17.125C11.9048 17.125 11.625 16.8452 11.625 16.5V16.3257C10.9016 16.2099 10.2486 15.8935 9.82873 15.4097C9.64065 15.193 9.6243 14.876 9.78906 14.6411C9.95383 14.4062 10.2574 14.3136 10.5252 14.4167L11.625 14.8399V13.3259C11.1346 13.2476 10.6825 13.0776 10.3123 12.8308C9.79331 12.4849 9.375 11.9383 9.375 11.25C9.375 10.5617 9.79331 10.0151 10.3123 9.66917C10.6825 9.42239 11.1346 9.25243 11.625 9.17411V9C11.625 8.65482 11.9048 8.375 12.25 8.375ZM11.625 10.448C11.3802 10.5077 11.1696 10.6 11.0056 10.7093C10.7103 10.9061 10.625 11.1095 10.625 11.25C10.625 11.3905 10.7103 11.5939 11.0056 11.7907C11.1696 11.9 11.3802 11.9923 11.625 12.052V10.448ZM12.875 13.448V15.052C13.1198 14.9923 13.3304 14.9 13.4944 14.7907C13.7897 14.5939 13.875 14.3905 13.875 14.25C13.875 14.1095 13.7897 13.9061 13.4944 13.7093C13.3304 13.6 13.1198 13.5077 12.875 13.448Z" fill="white"/>
</svg>
